Directed by:.......Steven Spielberg

Produced by:.......Steven Spielberg
                   Kathleen Kennedy
                   Quincy Jones
                   Frank Marshall

Written by Novel:..Alice Walker
                      
Screenplay:....... Menno Meyjes

Starring:..........Whoopi Goldberg
                   Danny Glover
                   Oprah Winfrey
                   Margaret Avery
                   Akosua Busia

Music by:..........Quincy Jones

Cinematography:....Allen Daviau

Editing by:........Michael Kahn

Release date(s)   December 18, 1985 (US)

Running time:......154 minutes





General
Complete name                    : The Color Purple.Part 1.mkv
Format                           : Matroska
File size                        : 1.27 GiB
Duration                         : 1h 15mn
Overall bit rate                 : 2 400 Kbps


Video
ID                               : 1
Format                           : AVC
Duration                         : 1h 15mn
Bit rate                         : 1 712 Kbps
Width                            : 720 pixels
Height                           : 568 pixels
Display aspect ratio             : 16:9
Frame rate                       : 25.000 fps
Resolution                       : 8 bits
Colorimetry                      : 4:2:0
Scan type                        : Progressive
Bits/(Pixel*Frame)               : 0.167
Stream size                      : 927 MiB (71%)
Writing library                  : x264 core 79

Audio #1
ID                               : 2
Format                           : AC-3
Format/Info                      : Audio Coding 3
Codec ID                         : A_AC3
Duration                         : 1h 15mn
Bit rate mode                    : Constant
Bit rate                         : 384 Kbps
Channel(s)                       : 6 channels
Channel positions                : Front: L C R, Surround: L R, LFE
Sampling rate                    : 48.0 KHz
Stream size                      : 208 MiB (16%)
Language                         : English

Audio #2
ID                               : 3
Format                           : MPEG Audio
Format version                   : Version 1
Format profile                   : Layer 3
Mode                             : Joint stereo / MS Stereo
Codec ID                         : A_MPEG/L3
Codec ID/Hint                    : MP3
Duration                         : 1h 15mn
Bit rate mode                    : Constant
Bit rate                         : 128 Kbps
Channel(s)                       : 2 channels
Sampling rate                    : 48.0 KHz
Stream size                      : 69.3 MiB (5%)
Language                         : German

Audio #3
ID                               : 4
Format                           : MPEG Audio
Format version                   : Version 1
Format profile                   : Layer 3
Mode                             : Joint stereo
Codec ID                         : A_MPEG/L3
Codec ID/Hint                    : MP3
Duration                         : 1h 15mn
Bit rate mode                    : Constant
Bit rate                         : 128 Kbps
Channel(s)                       : 2 channels
Sampling rate                    : 48.0 KHz
Stream size                      : 69.3 MiB (5%)
Language                         : Spanish

Text #1
ID                               : 5
Format                           : VobSub
Codec ID                         : S_VOBSUB
Codec ID/Info                    : The same subtitle format used on DVDs
Language                         : English

Text #2
ID                               : 6
Format                           : VobSub
Codec ID                         : S_VOBSUB
Codec ID/Info                    : The same subtitle format used on DVDs
Language                         : German

Text #3
ID                               : 7
Format                           : VobSub
Codec ID                         : S_VOBSUB
Codec ID/Info                    : The same subtitle format used on DVDs
Language                         : Spanish

Text #4
ID                               : 8
Format                           : VobSub
Codec ID                         : S_VOBSUB
Codec ID/Info                    : The same subtitle format used on DVDs
Language                         : Dutch

Text #5
ID                               : 9
Format                           : VobSub
Codec ID                         : S_VOBSUB
Codec ID/Info                    : The same subtitle format used on DVDs
Language                         : Swedish

Text #6
ID                               : 10
Format                           : VobSub
Codec ID                         : S_VOBSUB
Codec ID/Info                    : The same subtitle format used on DVDs
Language                         : Norwegian

Text #7
ID                               : 11
Format                           : VobSub
Codec ID                         : S_VOBSUB
Codec ID/Info                    : The same subtitle format used on DVDs
Language                         : Danish

Text #8
ID                               : 12
Format                           : VobSub
Codec ID                         : S_VOBSUB
Codec ID/Info                    : The same subtitle format used on DVDs
Language                         : Finnish

Text #9
ID                               : 13
Format                           : VobSub
Codec ID                         : S_VOBSUB
Codec ID/Info                    : The same subtitle format used on DVDs
Language                         : Portuguese

Text #10
ID                               : 14
Format                           : VobSub
Codec ID                         : S_VOBSUB
Codec ID/Info                    : The same subtitle format used on DVDs

Text #11
ID                               : 15
Format                           : VobSub
Codec ID                         : S_VOBSUB
Codec ID/Info                    : The same subtitle format used on DVDs
Language                         : Polish

Text #12
ID                               : 16
Format                           : VobSub
Codec ID                         : S_VOBSUB
Codec ID/Info                    : The same subtitle format used on DVDs
Language                         : Greek

Text #13
ID                               : 17
Format                           : VobSub
Codec ID                         : S_VOBSUB
Codec ID/Info                    : The same subtitle format used on DVDs
Language                         : Czech

Text #14
ID                               : 18
Format                           : VobSub
Codec ID                         : S_VOBSUB
Codec ID/Info                    : The same subtitle format used on DVDs
Language                         : Turkish

Text #15
ID                               : 19
Format                           : VobSub
Codec ID                         : S_VOBSUB
Codec ID/Info                    : The same subtitle format used on DVDs
Language                         : Hungarian

Text #16
ID                               : 20
Format                           : VobSub
Codec ID                         : S_VOBSUB
Codec ID/Info                    : The same subtitle format used on DVDs
Language                         : Icelandic

Text #17
ID                               : 21
Format                           : VobSub
Codec ID                         : S_VOBSUB
Codec ID/Info                    : The same subtitle format used on DVDs
Language                         : Croatian

Text #18
ID                               : 22
Format                           : VobSub
Codec ID                         : S_VOBSUB
Codec ID/Info                    : The same subtitle format used on DVDs
Language                         : French

Text #19
ID                               : 23
Format                           : VobSub
Codec ID                         : S_VOBSUB
Codec ID/Info                    : The same subtitle format used on DVDs
Language                         : Italian

Menu
00:00:00.000                     : Chapter 1
00:03:13.240                     : Chapter 2
00:04:46.920                     : Chapter 3
00:07:12.000                     : Chapter 4
00:09:15.920                     : Chapter 5
00:12:42.640                     : Chapter 6
00:15:49.080                     : Chapter 7
00:19:34.040                     : Chapter 8
00:22:12.840                     : Chapter 9
00:27:20.040                     : Chapter 10
00:35:23.000                     : Chapter 11
00:39:18.800                     : Chapter 12
00:41:43.960                     : Chapter 13
00:45:25.000                     : Chapter 14
00:48:36.200                     : Chapter 15
00:52:29.560                     : Chapter 16
00:54:53.400                     : Chapter 17
00:58:39.200                     : Chapter 18
01:02:34.320                     : Chapter 19
01:05:20.120                     : Chapter 20
01:09:19.400                     : Chapter 21

General
Complete name                    : The Color Purple.Part 2.mkv
Format                           : Matroska
File size                        : 1.19 GiB
Duration                         : 1h 12mn
Overall bit rate                 : 2 363 Kbps


Video
ID                               : 1
Format                           : AVC
Duration                         : 1h 12mn
Bit rate                         : 1 676 Kbps
Width                            : 720 pixels
Height                           : 568 pixels
Display aspect ratio             : 16:9
Frame rate                       : 25.000 fps
Resolution                       : 8 bits
Colorimetry                      : 4:2:0
Scan type                        : Progressive
Bits/(Pixel*Frame)               : 0.164
Stream size                      : 863 MiB (71%)
Writing library                  : x264 core 79


Audio #1
ID                               : 2
Format                           : AC-3
Format/Info                      : Audio Coding 3
Codec ID                         : A_AC3
Duration                         : 1h 12mn
Bit rate mode                    : Constant
Bit rate                         : 384 Kbps
Channel(s)                       : 6 channels
Channel positions                : Front: L C R, Surround: L R, LFE
Sampling rate                    : 48.0 KHz
Stream size                      : 198 MiB (16%)
Language                         : English

Audio #2
ID                               : 3
Format                           : MPEG Audio
Format version                   : Version 1
Format profile                   : Layer 3
Mode                             : Joint stereo / MS Stereo
Codec ID                         : A_MPEG/L3
Codec ID/Hint                    : MP3
Duration                         : 1h 12mn
Bit rate mode                    : Constant
Bit rate                         : 128 Kbps
Channel(s)                       : 2 channels
Sampling rate                    : 48.0 KHz
Stream size                      : 65.9 MiB (5%)
Language                         : German

Audio #3
ID                               : 4
Format                           : MPEG Audio
Format version                   : Version 1
Format profile                   : Layer 3
Mode                             : Joint stereo / MS Stereo
Codec ID                         : A_MPEG/L3
Codec ID/Hint                    : MP3
Duration                         : 1h 12mn
Bit rate mode                    : Constant
Bit rate                         : 128 Kbps
Channel(s)                       : 2 channels
Sampling rate                    : 48.0 KHz
Stream size                      : 65.9 MiB (5%)
Language                         : Spanish

Text #1
ID                               : 5
Format                           : VobSub
Codec ID                         : S_VOBSUB
Codec ID/Info                    : The same subtitle format used on DVDs
Language                         : English

Text #2
ID                               : 6
Format                           : VobSub
Codec ID                         : S_VOBSUB
Codec ID/Info                    : The same subtitle format used on DVDs
Language                         : German

Text #3
ID                               : 7
Format                           : VobSub
Codec ID                         : S_VOBSUB
Codec ID/Info                    : The same subtitle format used on DVDs
Language                         : Spanish

Text #4
ID                               : 8
Format                           : VobSub
Codec ID                         : S_VOBSUB
Codec ID/Info                    : The same subtitle format used on DVDs
Language                         : Dutch

Text #5
ID                               : 9
Format                           : VobSub
Codec ID                         : S_VOBSUB
Codec ID/Info                    : The same subtitle format used on DVDs
Language                         : Swedish

Text #6
ID                               : 10
Format                           : VobSub
Codec ID                         : S_VOBSUB
Codec ID/Info                    : The same subtitle format used on DVDs
Language                         : Norwegian

Text #7
ID                               : 11
Format                           : VobSub
Codec ID                         : S_VOBSUB
Codec ID/Info                    : The same subtitle format used on DVDs
Language                         : Danish

Text #8
ID                               : 12
Format                           : VobSub
Codec ID                         : S_VOBSUB
Codec ID/Info                    : The same subtitle format used on DVDs
Language                         : Finnish

Text #9
ID                               : 13
Format                           : VobSub
Codec ID                         : S_VOBSUB
Codec ID/Info                    : The same subtitle format used on DVDs
Language                         : Portuguese

Text #10
ID                               : 14
Format                           : VobSub
Codec ID                         : S_VOBSUB
Codec ID/Info                    : The same subtitle format used on DVDs

Text #11
ID                               : 15
Format                           : VobSub
Codec ID                         : S_VOBSUB
Codec ID/Info                    : The same subtitle format used on DVDs
Language                         : Polish

Text #12
ID                               : 16
Format                           : VobSub
Codec ID                         : S_VOBSUB
Codec ID/Info                    : The same subtitle format used on DVDs
Language                         : Greek

Text #13
ID                               : 17
Format                           : VobSub
Codec ID                         : S_VOBSUB
Codec ID/Info                    : The same subtitle format used on DVDs
Language                         : Czech

Text #14
ID                               : 18
Format                           : VobSub
Codec ID                         : S_VOBSUB
Codec ID/Info                    : The same subtitle format used on DVDs
Language                         : Turkish

Text #15
ID                               : 19
Format                           : VobSub
Codec ID                         : S_VOBSUB
Codec ID/Info                    : The same subtitle format used on DVDs
Language                         : Hungarian

Text #16
ID                               : 20
Format                           : VobSub
Codec ID                         : S_VOBSUB
Codec ID/Info                    : The same subtitle format used on DVDs
Language                         : Icelandic

Text #17
ID                               : 21
Format                           : VobSub
Codec ID                         : S_VOBSUB
Codec ID/Info                    : The same subtitle format used on DVDs
Language                         : Croatian

Text #18
ID                               : 22
Format                           : VobSub
Codec ID                         : S_VOBSUB
Codec ID/Info                    : The same subtitle format used on DVDs
Language                         : French

Text #19
ID                               : 23
Format                           : VobSub
Codec ID                         : S_VOBSUB
Codec ID/Info                    : The same subtitle format used on DVDs
Language                         : Italian

Menu
00:00:00.000                     : Chapter 1
00:02:17.200                     : Chapter 2
00:04:51.400                     : Chapter 3
00:07:40.000                     : Chapter 4
00:11:09.600                     : Chapter 5
00:16:43.800                     : Chapter 6
00:19:45.880                     : Chapter 7
00:25:29.040                     : Chapter 8
00:28:33.240                     : Chapter 9
00:34:00.760                     : Chapter 10
00:37:47.960                     : Chapter 11
00:47:51.440                     : Chapter 12
00:52:08.840                     : Chapter 13
00:56:45.240                     : Chapter 14
01:02:38.320                     : Chapter 15
01:07:10.120                     : Chapter 16


See Also: http://en.wikipedia.org/wiki/The_Color_Purple_%28film%29